<svg width="65" height="66" viewBox="0 0 65 66" fill="none" xmlns="http://www.w3.org/2000/svg">
<rect width="64" height="64" fill="white"/>
<path d="M16.15 54H1.95V53.4C5.35 53.4 5.55 51.15 5.55 47.45V24.15C5.55 20.45 5.35 18.2 1.95 18.2V17.6H16.45C27.85 17.6 34.4 24.1 34.4 35.35C34.4 46.85 27.15 54 16.15 54ZM16.35 52.6C25.3 52.6 29.45 46.4 29.45 35.65C29.45 25.6 25.2 19 16.1 19H11.85C10.65 19 9.95 19.6 9.95 20.8V49.4C9.95 51.7 11.25 52.6 16.35 52.6ZM52.6867 34.8V34.9C57.9367 35.5 62.8867 38.85 62.8867 44.6C62.8867 50 58.1867 54 49.3367 54H35.8367V53.4C39.2367 53.4 39.4367 51.15 39.4367 47.45V24.15C39.4367 20.45 39.2367 18.2 35.8367 18.2V17.6H48.6367C56.9367 17.6 60.9867 21 60.9867 26.15C60.9867 31.6 56.5867 34.05 52.6867 34.8ZM47.7867 19H45.7367C44.5367 19 43.8367 19.6 43.8367 20.8V34.3H47.8367C53.8367 34.3 56.3367 31.45 56.3367 26.9C56.3367 21.65 53.3867 19 47.7867 19ZM48.2867 52.6C54.4367 52.6 58.0367 50 58.0367 44.45C58.0367 38.85 54.3367 35.8 48.0367 35.8H43.8367V49.4C43.8367 50.75 43.8367 52.6 48.2867 52.6Z" fill="black"/>
</svg>
