<svg width="64" height="64" viewBox="0 0 63 61" fill="none" xmlns="http://www.w3.org/2000/svg">
<path d="M1.544 60.88L0.932 59.52C5.964 54.624 6.984 51.904 6.984 43.88V9.404C6.984 4.372 6.712 1.312 2.088 1.312V0.495997H17.864V1.312C13.24 1.312 12.968 4.372 12.968 9.404V39.528C12.968 50.272 10.928 55.576 1.544 60.88ZM62.7913 0.495997V1.312C58.1673 1.312 57.8953 4.372 57.8953 9.404V41.364C57.8953 46.396 58.1673 49.184 62.7913 49.184V50H47.0153V49.184C51.6393 49.184 51.9113 46.396 51.9113 41.364V25.52H31.0353V41.364C31.0353 46.396 31.3073 49.184 35.9313 49.184V50H20.1553V49.184C24.7793 49.184 25.0513 46.396 25.0513 41.364V9.404C25.0513 4.372 24.7793 1.312 20.1553 1.312V0.495997H35.9313V1.312C31.3073 1.312 31.0353 4.372 31.0353 9.404V23.276H51.9113V9.404C51.9113 4.372 51.6393 1.312 47.0153 1.312V0.495997H62.7913Z" fill="white"/>
</svg>
